<?xml version="1.0" encoding="iso-8859-1"?>
<svg xmlns="http://www.w3.org/2000/svg" xmlns:xlink="http://www.w3.org/1999/xlink" fill='#fff' viewBox="0 0 60 60"><g fill="none" transform="translate(-592.000000, -120.000000)" stroke="#fff" stroke-width="2"><g transform="translate(603.000000, 126.000000)"><path d="M19.5,6 L22.5,0 L25.5,6 L25.5,6 L28.5,0 L31.5,6 L34.5,0 L37.5,6 L38,6 L38,50 L0,50 L0,6 L0.5,6 L3.5,0 L6.5,6 L6.5,6 L9.5,0 L12.5,6 L15.5,0 L18.5,6 L19.5,6 Z" id="Triangle-45"></path><path d="M18,18 L32,18" id="Line"></path><path d="M18,23 L32,23" id="Line"></path><path d="M18,28 L32,28" id="Line"></path><path d="M18,33 L32,33" id="Line"></path><path d="M4.80704028,30.5158397 L9.07007623,32.5567267 L13.333113,20.8023597" id="Path-3636"></path><rect id="Rectangle-1622" x="17" y="37" width="16" height="6"></rect></g></g></svg>