<?xml version="1.0" encoding="iso-8859-1"?>
<svg xmlns="http://www.w3.org/2000/svg" xmlns:xlink="http://www.w3.org/1999/xlink" fill='#fff' viewBox="0 20 89.75 89.70"><g><path d="M79.24,57.726c-0.023-0.084-0.051-0.169-0.09-0.25l-9.057-18.934c-0.25-0.521-0.776-0.853-1.354-0.853H31.173   c-0.58,0-1.107,0.334-1.355,0.858l-8.97,18.934c-0.004,0.007-0.005,0.015-0.008,0.023c-4.632,1.196-8.07,5.397-8.07,10.398v6.664   c0,4.872,3.26,8.991,7.712,10.306v9.646c0,1.815,1.688,3.293,3.763,3.293h4.694c2.075,0,3.763-1.478,3.763-3.293v-9.202h34.596   v9.202c0,1.815,1.688,3.293,3.763,3.293h4.694c2.075,0,3.763-1.478,3.763-3.293v-9.878c4.099-1.517,7.033-5.454,7.033-10.074   v-6.664C86.551,63.178,83.484,59.165,79.24,57.726z M32.122,40.689h35.673l7.874,16.462H24.323L32.122,40.689z M29.704,94.503   c-0.03,0.088-0.303,0.308-0.765,0.308h-4.694c-0.462,0-0.734-0.221-0.763-0.293v-9.204c0.013,0,0.025,0.002,0.038,0.002h6.182   L29.704,94.503z M76.52,94.503c-0.03,0.088-0.303,0.308-0.765,0.308h-4.694c-0.462,0-0.734-0.221-0.763-0.293v-9.202h5.503   c0.242,0,0.479-0.021,0.717-0.036L76.52,94.503z M83.551,74.565c0,4.273-3.477,7.75-7.75,7.75H23.52c-4.273,0-7.75-3.477-7.75-7.75   v-6.664c0-4.273,3.477-7.75,7.75-7.75h52.281c4.273,0,7.75,3.477,7.75,7.75V74.565z"/> <path d="M26.592,65.344c-3.247,0-5.889,2.642-5.889,5.89c0,3.247,2.642,5.889,5.889,5.889s5.889-2.642,5.889-5.889   C32.481,67.985,29.839,65.344,26.592,65.344z M26.592,74.122c-1.593,0-2.889-1.296-2.889-2.889c0-1.594,1.296-2.89,2.889-2.89   c1.593,0,2.889,1.296,2.889,2.89C29.481,72.826,28.185,74.122,26.592,74.122z"/> <path d="M73.408,64.972c-3.248,0-5.89,2.642-5.89,5.89c0,3.247,2.642,5.889,5.89,5.889c3.247,0,5.889-2.642,5.889-5.889   C79.297,67.613,76.655,64.972,73.408,64.972z M73.408,73.75c-1.594,0-2.89-1.296-2.89-2.889c0-1.594,1.296-2.89,2.89-2.89   c1.593,0,2.889,1.296,2.889,2.89C76.297,72.454,75.001,73.75,73.408,73.75z"/> <path d="M56.451,72.273H42.869c-0.829,0-1.5,0.672-1.5,1.5s0.671,1.5,1.5,1.5h13.582c0.828,0,1.5-0.672,1.5-1.5   S57.279,72.273,56.451,72.273z"/></g></svg>